<?xml version="1.0" encoding="UTF-8"?><svg id="Layer_1" xmlns="http://www.w3.org/2000/svg" viewBox="0 0 438.79 135.66"><path d="M91.3125,128.78125l0-34.265625l7.265625,0l0,34.265625l-7.265625,0z M116.807109375,114.53125l3.1171875-3.984375l7.3359375-7.96875l8.0625,0l-10.40625,11.3671875l11.0390625,14.8359375l-8.25,0l-7.546875-10.6171875l-3.0703125,2.4609375l0,8.15625l-7.1484375,0l0-36.46875l7.1484375,0l0,16.265625l-0.375,5.953125l0.09375,0z M159.64546875,128.78125l-1.3828125-3.5625l-0.1875,0q-1.8046875,2.2734375-3.71484375,3.15234375t-4.98046875,0.87890625q-3.7734375,0-5.94140625-2.15625t-2.16796875-6.140625q0-4.171875,2.91796875-6.15234375t8.80078125-2.19140625l4.546875-0.140625l0-1.1484375q0-3.984375-4.078125-3.984375q-3.140625,0-7.3828125,1.8984375l-2.3671875-4.828125q4.5234375-2.3671875,10.03125-2.3671875q5.2734375,0,8.0859375,2.296875t2.8125,6.984375l0,17.4609375l-4.9921875,0z M157.53609375,116.640625l-2.765625,0.09375q-3.1171875,0.09375-4.640625,1.125t-1.5234375,3.140625q0,3.0234375,3.46875,3.0234375q2.484375,0,3.97265625-1.4296875t1.48828125-3.796875l0-2.15625z M186.335390625,123.5546875q1.875,0,4.5-0.8203125l0,5.3203125q-2.671875,1.1953125-6.5625,1.1953125q-4.2890625,0-6.24609375-2.16796875t-1.95703125-6.50390625l0-12.6328125l-3.421875,0l0-3.0234375l3.9375-2.390625l2.0625-5.53125l4.5703125,0l0,5.578125l7.3359375,0l0,5.3671875l-7.3359375,0l0,12.6328125q0,1.5234375,0.85546875,2.25t2.26171875,0.7265625z M230.269921875,128.78125l-8.25-26.8828125l-0.2109375,0q0.4453125,8.203125,0.4453125,10.9453125l0,15.9375l-6.4921875,0l0-34.265625l9.890625,0l8.109375,26.203125l0.140625,0l8.6015625-26.203125l9.890625,0l0,34.265625l-6.7734375,0l0-16.21875q0-1.1484375,0.03515625-2.6484375t0.31640625-7.96875l-0.2109375,0l-8.8359375,26.8359375l-6.65625,0z M274.60828125,107.171875q-2.2734375,0-3.5625,1.44140625t-1.4765625,4.08984375l10.03125,0q-0.046875-2.6484375-1.3828125-4.08984375t-3.609375-1.44140625z M275.61609375,129.25q-6.328125,0-9.890625-3.4921875t-3.5625-9.890625q0-6.5859375,3.29296875-10.18359375t9.10546875-3.59765625q5.5546875,0,8.6484375,3.1640625t3.09375,8.7421875l0,3.46875l-16.8984375,0q0.1171875,3.046875,1.8046875,4.7578125t4.734375,1.7109375q2.3671875,0,4.4765625-0.4921875t4.40625-1.5703125l0,5.53125q-1.875,0.9375-4.0078125,1.39453125t-5.203125,0.45703125z M302.563828125,128.78125l-7.1484375,0l0-36.46875l7.1484375,0l0,36.46875z M313.0584375,95.8046875q0-3.4921875,3.890625-3.4921875t3.890625,3.4921875q0,1.6640625-0.97265625,2.58984375t-2.91796875,0.92578125q-3.890625,0-3.890625-3.515625z M320.5115625,128.78125l-7.1484375,0l0-26.203125l7.1484375,0l0,26.203125z" fill="#34d399"/></svg>
